<?xml version="1.0" encoding="UTF-8" standalone="no"?>
<svg
   id="Layer_1"
   data-name="Layer 1"
   width="98.9"
   height="22.4"
   viewBox="0 0 98.9 22.4"
   version="1.1"
   sodipodi:docname="ps4bumper.svg"
   inkscape:version="1.2.2 (732a01da63, 2022-12-09)"
   xmlns:inkscape="http://www.inkscape.org/namespaces/inkscape"
   xmlns:sodipodi="http://sodipodi.sourceforge.net/DTD/sodipodi-0.dtd"
   xmlns="http://www.w3.org/2000/svg"
   xmlns:svg="http://www.w3.org/2000/svg">
  <sodipodi:namedview
     id="namedview1267"
     pagecolor="#ffffff"
     bordercolor="#000000"
     borderopacity="0.25"
     inkscape:showpageshadow="2"
     inkscape:pageopacity="0.0"
     inkscape:pagecheckerboard="0"
     inkscape:deskcolor="#d1d1d1"
     showgrid="false"
     inkscape:zoom="12.23458"
     inkscape:cx="49.490869"
     inkscape:cy="11.197769"
     inkscape:window-width="1920"
     inkscape:window-height="1017"
     inkscape:window-x="1912"
     inkscape:window-y="-8"
     inkscape:window-maximized="1"
     inkscape:current-layer="Layer_1" />
  <defs
     id="defs1258">
    <style
       id="style1256">
      .cls-1 {
        fill: #f5f5f5;
      }

      .cls-2 {
        fill: #ededed;
      }
    </style>
  </defs>
  <g
     id="g1264">
    <path
       class="cls-1"
       d="M0,15.5a2.14,2.14,0,0,1,1.1-1.9C5.6,10.7,24.4,0,52.6,0,79.5,0,93.7,5.9,97.7,8a2.2,2.2,0,0,1,1.2,2S89.1,7.1,51.4,7.1,0,15.5,0,15.5Z"
       id="path1260"
       style="stroke:#000000;fill:#1f69ff;fill-opacity:1;stroke-width:2;stroke-dasharray:none" />
    <path
       class="cls-2"
       d="M0,22.4H0V15.5S13.7,7.1,51.4,7.1,98.9,10,98.9,10V21h0c-7.7-1.3-21.2-2.6-44.1-2.6C26.3,18.4,8.9,20.7,0,22.4Z"
       id="path1262"
       style="fill:#1f69ff;stroke:#000000;fill-opacity:1;stroke-width:2;stroke-dasharray:none" />
  </g>
</svg>
