<?xml version="1.0" encoding="UTF-8" standalone="no"?>
<svg
   id="Layer_1"
   data-name="Layer 1"
   width="180.53"
   height="105.93"
   viewBox="0 0 180.53 105.93"
   version="1.1"
   sodipodi:docname="ps4dpad.svg"
   inkscape:version="1.2.2 (732a01da63, 2022-12-09)"
   xmlns:inkscape="http://www.inkscape.org/namespaces/inkscape"
   xmlns:sodipodi="http://sodipodi.sourceforge.net/DTD/sodipodi-0.dtd"
   xmlns="http://www.w3.org/2000/svg"
   xmlns:svg="http://www.w3.org/2000/svg">
  <sodipodi:namedview
     id="namedview2539"
     pagecolor="#ffffff"
     bordercolor="#000000"
     borderopacity="0.25"
     inkscape:showpageshadow="2"
     inkscape:pageopacity="0.0"
     inkscape:pagecheckerboard="0"
     inkscape:deskcolor="#d1d1d1"
     showgrid="false"
     inkscape:zoom="6.7775724"
     inkscape:cx="89.338773"
     inkscape:cy="51.936"
     inkscape:window-width="1920"
     inkscape:window-height="1017"
     inkscape:window-x="1912"
     inkscape:window-y="-8"
     inkscape:window-maximized="1"
     inkscape:current-layer="Layer_1" />
  <defs
     id="defs2484">
    <style
       id="style2482">
      .cls-1 {
        fill: #1a1a1a;
      }

      .cls-2, .cls-4 {
        isolation: isolate;
        opacity: 0.25;
      }

      .cls-3 {
        fill: #e6e6e6;
      }

      .cls-4 {
        fill: #fff;
      }
    </style>
  </defs>
  <g
     id="g2510"
     style="stroke-width:2;stroke-dasharray:none"
     transform="translate(1.000372,1.000372)">
    <path
       class="cls-1"
       d="m 124.5,20.6 c 1.4,-2 1.2,-2.9 1.2,-2.9 0,0 0.2,-0.9 -1.2,-2.9 -1.4,-2 -15,-13.6 -15.7,-14 -0.7,-0.4 -28.5,-2.2 -31.4,1.3 -2.9,3.5 -2.6,15.6 -2.6,15.6 0,0 -0.3,12.1 2.6,15.6 2.9,3.5 30.7,1.7 31.4,1.3 0.7,-0.4 14.3,-12 15.7,-14 z"
       transform="translate(0.02,0.02)"
       id="path2486"
       style="fill:#ffffff;stroke:#000000;stroke-width:2;stroke-dasharray:none" />
    <path
       class="cls-1"
       d="m 52.2,49.7 c 2,1.4 2.9,1.2 2.9,1.2 0,0 0.9,0.2 2.9,-1.2 C 60,48.3 71.6,34.7 72,34 72.4,33.3 74.2,5.5 70.7,2.6 67.2,-0.3 55.1,0 55.1,0 55.1,0 43,-0.2 39.5,2.6 36,5.4 37.8,33.3 38.2,34 c 0.4,0.7 12,14.3 14,15.7 z"
       transform="translate(0.02,0.02)"
       id="path2492"
       style="fill:#ffffff;stroke:#000000;stroke-width:2;stroke-dasharray:none" />
    <path
       class="cls-1"
       d="M 175.9,2.2 C 173,-1.3 145.2,0.5 144.5,0.9 c -0.7,0.4 -14.3,12 -15.7,14 -1.4,2 -1.2,2.9 -1.2,2.9 0,0 -0.2,0.9 1.2,2.9 1.4,2 15,13.6 15.7,14 0.7,0.4 28.5,2.2 31.4,-1.3 2.9,-3.5 2.6,-15.6 2.6,-15.6 0,0 0.3,-12.1 -2.6,-15.6 z"
       transform="translate(0.02,0.02)"
       id="path2498"
       style="fill:#ffffff;stroke:#000000;stroke-width:2;stroke-dasharray:none" />
    <path
       class="cls-1"
       d="M 20.6,1.2 C 18.6,-0.2 17.7,0 17.7,0 c 0,0 -0.9,-0.2 -2.9,1.2 -2,1.4 -13.6,15 -14,15.7 -0.4,0.7 -2.2,28.5 1.3,31.4 3.5,2.9 15.6,2.6 15.6,2.6 0,0 12.1,0.3 15.6,-2.6 C 36.8,45.4 35,17.6 34.6,16.9 34.2,16.2 22.6,2.6 20.6,1.2 Z"
       transform="translate(0.02,0.02)"
       id="path2504"
       style="fill:#ffffff;stroke:#000000;stroke-width:2;stroke-dasharray:none" />
  </g>
  <g
     id="g2536"
     style="stroke-width:2;stroke-dasharray:none"
     transform="translate(1.000372,1.000372)">
    <path
       class="cls-3"
       d="m 124.5,73.6 c 1.4,-2 1.2,-2.9 1.2,-2.9 0,0 0.2,-0.9 -1.2,-2.9 -1.4,-2 -15,-13.6 -15.7,-14 -0.7,-0.4 -28.5,-2.2 -31.4,1.3 -2.9,3.5 -2.6,15.6 -2.6,15.6 0,0 -0.3,12.1 2.6,15.6 2.9,3.5 30.7,1.7 31.4,1.3 0.7,-0.4 14.3,-12 15.7,-14 z"
       transform="translate(0.02,0.02)"
       id="path2512"
       style="fill:#1f69ff;fill-opacity:1;stroke:#000000;stroke-width:2;stroke-dasharray:none" />
    <path
       class="cls-3"
       d="m 52.2,102.7 c 2,1.4 2.9,1.2 2.9,1.2 0,0 0.9,0.2 2.9,-1.2 C 60,101.3 71.6,87.7 72,87 72.4,86.3 74.2,58.5 70.7,55.6 67.2,52.7 55.1,53 55.1,53 55.1,53 43,52.8 39.5,55.6 36,58.4 37.8,86.3 38.2,87 c 0.4,0.7 12,14.3 14,15.7 z"
       transform="translate(0.02,0.02)"
       id="path2518"
       style="fill:#1f69ff;fill-opacity:1;stroke:#000000;stroke-width:2;stroke-dasharray:none" />
    <path
       class="cls-3"
       d="m 175.9,55.1 c -2.9,-3.5 -30.7,-1.7 -31.4,-1.3 -0.7,0.4 -14.3,12 -15.7,14 -1.4,2 -1.2,2.9 -1.2,2.9 0,0 -0.2,0.9 1.2,2.9 1.4,2 15,13.6 15.7,14 0.7,0.4 28.5,2.2 31.4,-1.3 2.9,-3.5 2.6,-15.6 2.6,-15.6 0,0 0.3,-12.1 -2.6,-15.6 z"
       transform="translate(0.02,0.02)"
       id="path2524"
       style="fill:#1f69ff;fill-opacity:1;stroke:#000000;stroke-width:2;stroke-dasharray:none" />
    <path
       class="cls-3"
       d="m 20.6,54.2 c -2,-1.4 -2.9,-1.2 -2.9,-1.2 0,0 -0.9,-0.2 -2.9,1.2 -2,1.4 -13.6,15 -14,15.7 -0.4,0.7 -2.2,28.5 1.3,31.4 3.5,2.9 15.6,2.6 15.6,2.6 0,0 12.1,0.3 15.6,-2.6 3.5,-2.9 1.7,-30.7 1.3,-31.4 -0.4,-0.7 -12,-14.3 -14,-15.7 z"
       transform="translate(0.02,0.02)"
       id="path2530"
       style="fill:#1f69ff;fill-opacity:1;stroke:#000000;stroke-width:2;stroke-dasharray:none" />
  </g>
</svg>
