<?xml version="1.0" encoding="UTF-8" standalone="no"?>
<svg
   version="1.2"
   viewBox="0 0 807 599"
   width="807"
   height="599"
   id="svg600"
   sodipodi:docname="ps4disconnected.svg"
   inkscape:version="1.2.2 (732a01da63, 2022-12-09)"
   xmlns:inkscape="http://www.inkscape.org/namespaces/inkscape"
   xmlns:sodipodi="http://sodipodi.sourceforge.net/DTD/sodipodi-0.dtd"
   xmlns="http://www.w3.org/2000/svg"
   xmlns:svg="http://www.w3.org/2000/svg">
  <defs
     id="defs604" />
  <sodipodi:namedview
     id="namedview602"
     pagecolor="#ffffff"
     bordercolor="#000000"
     borderopacity="0.25"
     inkscape:showpageshadow="2"
     inkscape:pageopacity="0.0"
     inkscape:pagecheckerboard="0"
     inkscape:deskcolor="#d1d1d1"
     showgrid="false"
     inkscape:zoom="1"
     inkscape:cx="459.5"
     inkscape:cy="270"
     inkscape:window-width="1920"
     inkscape:window-height="1017"
     inkscape:window-x="1912"
     inkscape:window-y="-8"
     inkscape:window-maximized="1"
     inkscape:current-layer="svg600" />
  <title
     id="title304">base (1)-svg</title>
  <style
     id="style306">
		.s0 { fill: #ffffff } 
		.s1 { fill: #e2dbdb } 
		.s2 { fill: #fefefe } 
		.s3 { fill: #bfbaba } 
		.s4 { fill: #121212 } 
		.s5 { fill: #1f1f1f } 
		.s6 { opacity: .1;fill: #e6e6e6 } 
		.s7 { opacity: .1;fill: #000000 } 
		.s8 { opacity: .2;fill: #000000 } 
		.s9 { fill: #000000 } 
		.s10 { fill: #10111a } 
		.s11 { fill: #1a1a1a } 
		.s12 { opacity: .3;fill: #000000 } 
		.s13 { fill: #0b0b0f } 
		.s14 { fill: #080808 } 
		.s15 { fill: #0f0f0f } 
		.s16 { fill: #ff6666 } 
		.s17 { fill: #7cb2e8 } 
		.s18 { fill: #ff69f8 } 
		.s19 { fill: #40e2a0 } 
		.s20 { fill: #050505;stroke: #000000;stroke-width: 2 } 
		.s21 { fill: #f2f2f2 } 
		.s22 { fill: #0a0a0a } 
		.s23 { fill: #cccccc } 
	</style>
  <rect
     style="display:none;fill:#ff0000;stroke-width:2;stroke-dasharray:none"
     id="rect824"
     width="913.17084"
     height="707.06329"
     x="-42.939068"
     y="-25.763441" />
  <path
     id="Layer"
     class="s0"
     d="m 801.3,418.6 c -2.9,-15.5 -17.7,-102.5 -32,-144.6 -9.4,-27.7 -13.1,-53 -17,-64.9 -12,-35.7 -33,-65.7 -33,-65.7 0,0 -9.5,-13.1 -10.1,-16.3 -0.6,-3.2 -4.7,-8.6 -4.7,-8.6 0,0 -17.4,-5.7 -62.3,-5.7 -44.9,0 -53.7,5 -53.7,5 q -0.6,0.7 -1.3,1.4 -0.7,0.6 -1.4,1.3 -0.8,0.6 -1.6,1.1 -0.8,0.5 -1.6,1 c -3.5,1.8 -11.7,1.7 -11.7,1.7 h -33.4 q -0.1,0 -0.2,0 -0.2,0 -0.3,0 -0.1,0.1 -0.2,0.1 -0.1,0.1 -0.2,0.2 -0.1,0.2 -0.2,0.5 -0.1,0.2 -0.2,0.5 -0.1,0.2 -0.1,0.5 -0.1,0.2 -0.1,0.5 H 269.9 q 0,-0.3 -0.1,-0.5 -0.1,-0.3 -0.1,-0.5 -0.1,-0.3 -0.2,-0.5 -0.1,-0.3 -0.2,-0.5 -0.1,-0.1 -0.2,-0.2 -0.1,0 -0.2,-0.1 -0.1,0 -0.3,0 -0.1,0 -0.2,0 H 235 c 0,0 -8.2,0.2 -11.7,-1.7 q -0.8,-0.5 -1.6,-1 -0.8,-0.5 -1.6,-1.1 -0.7,-0.6 -1.4,-1.3 -0.7,-0.7 -1.3,-1.4 c -0.4,-0.5 -8.8,-5 -53.7,-5 -44.9,0 -62.3,5.7 -62.3,5.7 0,0 -4.1,5.3 -4.7,8.6 -0.6,3.3 -10.1,16.3 -10.1,16.3 0,0 -21,30 -33,65.7 -4,11.9 -7.7,37.2 -17,64.9 C 22.3,316.1 7.5,403.1 4.6,418.6 0.3,441.8 0,508.8 0,508.8 c 0,0 4.5,53.4 36.2,74.9 31.7,21.5 56.7,14 56.7,14 0,0 33.1,-8.2 57.8,-41.9 24.7,-33.7 56.6,-129.2 56.6,-129.2 q 0.6,-0.8 1.3,-1.5 0.6,-0.7 1.3,-1.4 0.8,-0.6 1.5,-1.2 0.8,-0.7 1.6,-1.2 0.7,-0.5 1.5,-0.9 0.7,-0.4 1.5,-0.7 0.8,-0.4 1.6,-0.6 0.9,-0.3 1.7,-0.4 l 183.7,0.1 183.7,-0.1 q 0.8,0.1 1.7,0.4 0.8,0.2 1.6,0.6 0.8,0.3 1.5,0.7 0.8,0.4 1.5,0.9 0.8,0.5 1.6,1.2 0.7,0.6 1.5,1.2 0.7,0.7 1.3,1.4 0.7,0.7 1.3,1.5 c 0.4,0.5 31.9,95.4 56.6,129.2 24.7,33.8 57.8,41.9 57.8,41.9 0,0 25,7.5 56.7,-14 31.7,-21.5 36.2,-74.9 36.2,-74.9 0,0 -0.3,-67 -4.7,-90.2 z"
     style="display:inline;fill:#ff0000;stroke:#000000;stroke-width:2;stroke-dasharray:none"
     inkscape:label="PS4 Body" />
  <path
     id="path317"
     class="s3"
     d="m 274.7,407.5 c -28.5,0 -51.5,-23 -51.5,-51.5 0,-28.5 23,-51.5 51.5,-51.5 28.5,0 51.5,23 51.5,51.5 0,28.5 -23,51.5 -51.5,51.5 z"
     style="display:none;fill:#ffffff;stroke:#000000;stroke-width:4;stroke-dasharray:none"
     inkscape:label="LStick" />
  <path
     id="path323"
     class="s3"
     d="m 531.3,407.5 c -28.5,0 -51.5,-23 -51.5,-51.5 0,-28.5 23,-51.5 51.5,-51.5 28.5,0 51.5,23 51.5,51.5 0,28.5 -23,51.5 -51.5,51.5 z"
     style="display:none;fill:#ffffff;stroke:#000000;stroke-width:4;stroke-dasharray:none"
     inkscape:label="RStick" />
  <g
     id="g400"
     style="display:none;fill:#ffffff;stroke-width:2;stroke-dasharray:none"
     inkscape:label="Left Buttons">
    <path
       id="path374"
       class="s11"
       d="m 141.2,247.2 c 1.4,-2 1.2,-2.9 1.2,-2.9 0,0 0.2,-0.9 -1.2,-2.9 -1.4,-2 -15,-13.6 -15.7,-14 -0.7,-0.4 -28.5,-2.2 -31.4,1.3 -2.9,3.5 -2.6,15.6 -2.6,15.6 0,0 -0.3,12.1 2.6,15.6 2.9,3.5 30.7,1.7 31.4,1.3 0.7,-0.4 14.3,-12 15.7,-14 z"
       style="display:inline;fill:#ffffff;stroke:#000000;stroke-width:2;stroke-dasharray:none" />
    <path
       id="path380"
       class="s11"
       d="m 151,231.6 c 2,1.4 2.9,1.2 2.9,1.2 0,0 0.9,0.2 2.9,-1.2 2,-1.4 13.6,-15 14,-15.7 0.4,-0.7 2.2,-28.5 -1.3,-31.4 -3.5,-2.9 -15.6,-2.6 -15.6,-2.6 0,0 -12.1,-0.3 -15.6,2.6 -3.5,2.9 -1.7,30.7 -1.3,31.4 0.4,0.7 12,14.3 14,15.7 z"
       style="display:inline;fill:#ffffff;stroke:#000000;stroke-width:2;stroke-dasharray:none" />
    <path
       id="path386"
       class="s11"
       d="m 213.7,228.8 c -2.9,-3.5 -30.7,-1.7 -31.4,-1.3 -0.7,0.4 -14.3,12 -15.7,14 -1.4,2 -1.2,2.9 -1.2,2.9 0,0 -0.2,0.9 1.2,2.9 1.4,2 15,13.6 15.7,14 0.7,0.4 28.5,2.2 31.4,-1.3 2.9,-3.5 2.6,-15.6 2.6,-15.6 0,0 0.3,-12.1 -2.6,-15.6 z"
       style="display:inline;fill:#ffffff;stroke:#000000;stroke-width:2;stroke-dasharray:none" />
    <path
       id="path392"
       class="s11"
       d="m 156.8,257.1 c -2,-1.4 -2.9,-1.2 -2.9,-1.2 0,0 -0.9,-0.2 -2.9,1.2 -2,1.4 -13.6,15 -14,15.7 -0.4,0.7 -2.2,28.5 1.3,31.4 3.5,2.9 15.6,2.6 15.6,2.6 0,0 12.1,0.3 15.6,-2.6 3.5,-2.9 1.7,-30.7 1.3,-31.4 -0.4,-0.7 -12,-14.3 -14,-15.7 z"
       style="display:inline;fill:#ffffff;stroke:#000000;stroke-width:2;stroke-dasharray:none" />
  </g>
  <g
     id="g372"
     style="display:none;fill:#ffffff;stroke:#000000;stroke-width:2;stroke-dasharray:none"
     inkscape:label="Menu Buttons">
    <path
       id="path368"
       fill-rule="evenodd"
       class="s9"
       d="m 570.9,142.9 c 1.8,0.7 3.3,1.7 4.6,3.1 1.4,1.3 2.4,2.8 3.1,4.6 0.7,1.7 1.1,3.5 1.1,5.4 v 18.3 c 0,3.8 -1.5,7.4 -4.2,10 -2.6,2.7 -6.2,4.2 -10,4.2 -3.8,0 -7.4,-1.5 -10,-4.2 -2.7,-2.6 -4.2,-6.2 -4.2,-10 V 156 c 0,-1.9 0.4,-3.7 1.1,-5.4 0.7,-1.7 1.8,-3.3 3.1,-4.6 1.3,-1.3 2.9,-2.4 4.6,-3.1 1.7,-0.7 3.5,-1.1 5.4,-1.1 1.9,0 3.7,0.4 5.4,1.1 z m -10.2,1.6 c -1.5,0.6 -2.9,1.5 -4,2.7 -1.2,1.1 -2.1,2.5 -2.7,4 -0.7,1.5 -1,3.2 -1,4.8 v 18.3 c 0,1.6 0.3,3.3 1,4.8 0.6,1.5 1.5,2.9 2.7,4 1.1,1.2 2.5,2.1 4,2.7 1.5,0.7 3.2,1 4.8,1 1.6,0 3.3,-0.3 4.8,-1 1.5,-0.6 2.9,-1.5 4,-2.7 1.2,-1.1 2.1,-2.5 2.7,-4 0.7,-1.5 1,-3.2 1,-4.8 V 156 c 0,-1.6 -0.3,-3.3 -1,-4.8 -0.6,-1.5 -1.5,-2.9 -2.7,-4 -1.1,-1.2 -2.5,-2.1 -4,-2.7 -1.5,-0.7 -3.2,-1 -4.8,-1 -1.6,0 -3.3,0.3 -4.8,1 z"
       style="display:none;fill:#ffffff;stroke:#000000;stroke-width:2;stroke-dasharray:none" />
    <path
       id="path370"
       class="s10"
       d="m 565.5,143.5 c -1.6,0 -3.3,0.3 -4.8,1 -1.5,0.6 -2.9,1.5 -4,2.7 -1.2,1.1 -2.1,2.5 -2.7,4 -0.7,1.5 -1,3.2 -1,4.8 v 18.3 c 0,3.3 1.3,6.5 3.7,8.8 2.3,2.4 5.5,3.7 8.8,3.7 3.3,0 6.5,-1.3 8.8,-3.7 2.4,-2.3 3.7,-5.5 3.7,-8.8 V 156 c 0,-1.6 -0.3,-3.3 -1,-4.8 -0.6,-1.5 -1.5,-2.9 -2.7,-4 -1.1,-1.2 -2.5,-2.1 -4,-2.7 -1.5,-0.7 -3.2,-1 -4.8,-1 z"
       style="display:inline;fill:#ffffff;stroke:#000000;stroke-width:2;stroke-dasharray:none" />
    <path
       id="path362"
       fill-rule="evenodd"
       class="s9"
       d="m 245.9,142.9 c 1.8,0.7 3.3,1.7 4.6,3.1 1.4,1.3 2.4,2.8 3.1,4.6 0.7,1.7 1.1,3.5 1.1,5.4 v 18.3 c 0,3.8 -1.5,7.4 -4.2,10 -2.6,2.7 -6.2,4.2 -10,4.2 -3.8,0 -7.4,-1.5 -10,-4.2 -2.7,-2.6 -4.2,-6.2 -4.2,-10 V 156 c 0,-1.9 0.4,-3.7 1.1,-5.4 0.7,-1.7 1.8,-3.3 3.1,-4.6 1.3,-1.3 2.9,-2.4 4.6,-3.1 1.7,-0.7 3.5,-1.1 5.4,-1.1 1.9,0 3.7,0.4 5.4,1.1 z m -10.2,1.6 c -1.5,0.6 -2.9,1.5 -4,2.7 -1.2,1.1 -2.1,2.5 -2.7,4 -0.7,1.5 -1,3.2 -1,4.8 v 18.3 c 0,3.3 1.3,6.5 3.7,8.8 2.3,2.4 5.5,3.7 8.8,3.7 3.3,0 6.5,-1.3 8.8,-3.7 2.4,-2.3 3.7,-5.5 3.7,-8.8 V 156 c 0,-1.6 -0.3,-3.3 -1,-4.8 -0.6,-1.5 -1.5,-2.9 -2.7,-4 -1.1,-1.2 -2.5,-2.1 -4,-2.7 -1.5,-0.7 -3.2,-1 -4.8,-1 -1.6,0 -3.3,0.3 -4.8,1 z"
       style="display:none;fill:#ffffff;stroke:#000000;stroke-width:2;stroke-dasharray:none" />
    <path
       id="path364"
       class="s10"
       d="m 240.5,143.5 c -1.6,0 -3.3,0.3 -4.8,1 -1.5,0.6 -2.9,1.5 -4,2.7 -1.2,1.1 -2.1,2.5 -2.7,4 -0.7,1.5 -1,3.2 -1,4.8 v 18.3 c 0,3.3 1.3,6.5 3.7,8.8 2.3,2.4 5.5,3.7 8.8,3.7 3.3,0 6.5,-1.3 8.8,-3.7 2.4,-2.3 3.7,-5.5 3.7,-8.8 V 156 c 0,-1.6 -0.3,-3.3 -1,-4.8 -0.6,-1.5 -1.5,-2.9 -2.7,-4 -1.1,-1.2 -2.5,-2.1 -4,-2.7 -1.5,-0.7 -3.2,-1 -4.8,-1 z"
       style="display:inline;fill:#ffffff;stroke:#000000;stroke-width:2;stroke-dasharray:none" />
  </g>
  <g
     id="g470"
     inkscape:label="Touch Pad"
     style="display:none">
    <g
       id="g468"
       style="opacity:0.1" />
    <path
       id="path464"
       class="s14"
       d="m 530.4,124.3 q 0,-0.4 -0.1,-0.7 -0.2,-0.4 -0.5,-0.6 -0.2,-0.3 -0.6,-0.5 -0.3,-0.1 -0.7,-0.1 H 277.4 q -0.4,0 -0.7,0.1 -0.4,0.2 -0.6,0.5 -0.3,0.2 -0.5,0.6 -0.1,0.3 -0.1,0.7 v 129.2 c 0,2 0.4,4.1 1.2,6 0.8,1.9 1.9,3.6 3.4,5 1.4,1.5 3.1,2.6 5,3.4 1.9,0.8 4,1.2 6,1.2 h 223.8 c 2,0 4.1,-0.4 6,-1.2 1.9,-0.8 3.6,-1.9 5,-3.4 1.5,-1.4 2.6,-3.1 3.4,-5 0.8,-1.9 1.2,-4 1.2,-6 V 130.4 Z"
       style="fill:#000000;stroke:#000000" />
  </g>
  <g
     id="g512"
     inkscape:label="Right Buttons"
     style="display:none">
    <g
       id="g480"
       inkscape:label="Circle">
      <path
         id="path472"
         class="s11"
         d="m 709.9,271 c -10.6,0 -20.2,-6.4 -24.3,-16.2 -4.1,-9.9 -1.8,-21.2 5.7,-28.7 7.5,-7.5 18.8,-9.8 28.7,-5.7 9.8,4.1 16.2,13.7 16.2,24.3 0,3.5 -0.7,6.9 -2,10.1 -1.3,3.1 -3.3,6 -5.7,8.5 -2.5,2.4 -5.4,4.4 -8.5,5.7 -3.2,1.3 -6.6,2 -10.1,2 z"
         style="fill:#ffffff;stroke:#000000;stroke-width:2;stroke-dasharray:none" />
      <path
         id="path478"
         fill-rule="evenodd"
         class="s16"
         d="m 717.1,227.4 c 2.3,0.9 4.4,2.3 6.1,4.1 1.8,1.7 3.2,3.8 4.1,6.1 1,2.3 1.5,4.7 1.5,7.2 0,7.6 -4.6,14.5 -11.7,17.5 -7,2.9 -15.2,1.3 -20.6,-4.1 -5.4,-5.4 -7,-13.6 -4.1,-20.6 3,-7.1 9.9,-11.7 17.5,-11.7 2.5,0 4.9,0.5 7.2,1.5 z m -1.1,32.2 c 2,-0.8 3.7,-2 5.2,-3.5 1.5,-1.5 2.7,-3.2 3.5,-5.2 0.8,-1.9 1.2,-4 1.2,-6.1 0,-6.5 -3.9,-12.3 -9.9,-14.8 -6,-2.5 -12.8,-1.1 -17.4,3.5 -4.6,4.6 -6,11.4 -3.5,17.4 2.5,6 8.3,9.9 14.8,9.9 2.1,0 4.2,-0.4 6.1,-1.2 z"
         style="stroke:#000000;stroke-width:0.5;stroke-dasharray:none" />
    </g>
    <g
       id="g490"
       inkscape:label="Cross">
      <path
         id="path482"
         class="s11"
         d="m 652.3,328.6 c -10.6,0 -20.2,-6.4 -24.3,-16.2 -4.1,-9.9 -1.8,-21.2 5.7,-28.7 7.5,-7.5 18.8,-9.8 28.7,-5.7 9.8,4.1 16.2,13.7 16.2,24.3 0,3.5 -0.7,6.9 -2,10.1 -1.3,3.1 -3.3,6 -5.7,8.5 -2.5,2.4 -5.4,4.4 -8.5,5.7 -3.2,1.3 -6.6,2 -10.1,2 z"
         style="fill:#ffffff;stroke:#000000;stroke-width:2;stroke-dasharray:none" />
      <path
         id="path488"
         class="s17"
         d="m 666.7,290 -2,-2 -12.4,12.4 -12.3,-12.4 -2,2 12.3,12.4 -12.3,12.3 2,2 12.3,-12.3 12.4,12.3 2,-2 -12.4,-12.3 z"
         style="stroke:#000000;stroke-width:0.5;stroke-dasharray:none" />
    </g>
    <g
       id="g500"
       inkscape:label="Square">
      <path
         id="path492"
         class="s11"
         d="m 594.8,271 c -10.6,0 -20.2,-6.4 -24.3,-16.2 -4.1,-9.9 -1.8,-21.2 5.7,-28.7 7.5,-7.5 18.8,-9.8 28.7,-5.7 9.8,4.1 16.2,13.7 16.2,24.3 0,3.5 -0.7,6.9 -2,10.1 -1.3,3.1 -3.3,6 -5.7,8.5 -2.5,2.4 -5.4,4.4 -8.5,5.7 -3.2,1.3 -6.6,2 -10.1,2 z"
         style="fill:#ffffff;stroke:#000000;stroke-width:2;stroke-dasharray:none" />
      <path
         id="path498"
         fill-rule="evenodd"
         class="s18"
         d="M 609.1,230.4 V 259 h -28.6 v -28.6 z m -2.8,2.9 h -23 v 23 h 23 z"
         style="stroke:#000000;stroke-width:0.5;stroke-dasharray:none" />
    </g>
    <g
       id="g510"
       inkscape:label="Triangle">
      <path
         id="path502"
         class="s11"
         d="m 652.3,213.5 c -10.6,0 -20.2,-6.4 -24.3,-16.2 -4.1,-9.9 -1.8,-21.2 5.7,-28.7 7.5,-7.5 18.8,-9.8 28.7,-5.7 9.8,4.1 16.2,13.7 16.2,24.3 0,3.5 -0.7,6.9 -2,10.1 -1.3,3.1 -3.3,6 -5.7,8.5 -2.5,2.4 -5.4,4.4 -8.5,5.7 -3.2,1.3 -6.6,2 -10.1,2 z"
         style="fill:#ffffff;stroke:#000000;stroke-width:2;stroke-dasharray:none" />
      <path
         id="path508"
         fill-rule="evenodd"
         class="s19"
         d="m 669.9,198 h -35.2 l 1.6,-2.8 16,-27.6 16,27.6 z m -4.9,-2.8 -12.7,-21.9 -12.7,21.9 z"
         style="stroke:#000000;stroke-width:0.5;stroke-dasharray:none" />
    </g>
  </g>
  <g
     id="g524"
     inkscape:label="PS4 Logo"
     style="display:none">
    <path
       id="path514"
       class="s20"
       d="m 403,382.2 c -11.2,0 -20.2,-9 -20.2,-20.2 0,-11.2 9,-20.2 20.2,-20.2 11.2,0 20.2,9 20.2,20.2 0,11.2 -9,20.2 -20.2,20.2 z"
       style="fill:#000000" />
    <g
       id="g522">
      <path
         id="path516"
         class="s21"
         d="m 404.1,368.6 v -12.8 q 0,-0.1 0,-0.3 0,-0.1 0,-0.2 0.1,-0.2 0.2,-0.3 0,-0.1 0.1,-0.2 0.1,-0.1 0.1,-0.1 0.1,-0.1 0.2,-0.1 0.1,-0.1 0.2,0 0.1,0 0.2,0 c 0.6,0.2 0.9,0.7 0.9,1.7 v 6.9 q 0.2,0.1 0.5,0.2 0.3,0.1 0.5,0.2 0.3,0 0.6,0.1 0.2,0 0.5,0 0.2,0 0.4,0 0.2,-0.1 0.4,-0.1 0.2,-0.1 0.4,-0.2 0.2,-0.1 0.4,-0.2 c 1,-0.7 1.5,-1.9 1.5,-3.7 q 0,-0.6 0,-1.1 -0.1,-0.6 -0.2,-1.2 -0.2,-0.5 -0.4,-1 -0.3,-0.5 -0.6,-1 -0.4,-0.5 -0.9,-0.9 -0.4,-0.4 -1,-0.7 -0.5,-0.3 -1,-0.6 -0.6,-0.2 -1.2,-0.4 c -1.3,-0.4 -2.5,-0.8 -3.6,-1.1 -1.1,-0.3 -2,-0.5 -2.9,-0.7 v 12.2 2.7 1.7 2.5 1.5 l 4.7,1.5 v -3.6 z" />
      <path
         id="path518"
         class="s21"
         d="m 399,367.6 -1.7,0.6 -0.9,0.4 -1.6,0.3 -1.5,-0.2 c -0.3,-0.2 -0.4,-0.4 -0.2,-0.6 0.2,-0.2 0.2,-0.1 0.3,-0.2 0.1,-0.1 0.3,-0.1 0.4,-0.2 l 1.1,-0.4 4.1,-1.5 v -2.7 l -1.7,0.5 -5.5,2 -1,0.4 c -1.5,0.6 -2.2,1.2 -2.2,1.8 0.1,0.8 1,1.5 2.7,1.9 q 0.5,0.1 1.1,0.2 0.5,0.1 1,0.2 0.6,0.1 1.1,0.1 0.6,0 1.1,0 0.4,0 0.8,0 0.4,0 0.9,-0.1 0.4,0 0.8,-0.1 0.4,0 0.8,-0.1 v -2.3 z" />
      <path
         id="path520"
         class="s21"
         d="m 414.8,365.3 q -0.3,-0.1 -0.6,-0.2 -0.3,-0.1 -0.6,-0.2 -0.3,0 -0.7,-0.1 -0.3,-0.1 -0.6,-0.1 -0.3,0 -0.6,-0.1 -0.3,0 -0.6,0 -0.4,0 -0.7,0 -0.3,0 -0.6,0 -0.4,0 -0.7,0 -0.4,0.1 -0.7,0.1 -0.4,0.1 -0.7,0.1 -0.4,0 -0.7,0.1 -0.3,0.1 -0.7,0.2 -0.3,0 -0.6,0.1 -0.3,0.1 -0.7,0.3 -0.3,0.1 -0.6,0.2 v 2.8 l 3.9,-1.4 1.6,-0.5 1.1,-0.3 h 1.4 c 0.3,0.1 0.6,0.2 0.7,0.4 0.1,0.2 -0.2,0.4 -0.8,0.6 l -1.4,0.5 -6.5,2.4 v 2.7 l 3.5,-1.3 6.4,-2.3 0.7,-0.4 c 1.5,-0.5 2.2,-1.2 2.2,-1.9 0,-0.7 -0.8,-1.2 -2.4,-1.7 z" />
    </g>
  </g>
  <g
     id="g538"
     inkscape:label="L1+R1"
     style="display:inline;stroke-width:2;stroke-dasharray:none;fill:#ff0000">
    <path
       id="path526"
       class="s22"
       d="m 697.2,109.9 q 0,-0.3 -0.1,-0.6 0,-0.3 -0.2,-0.5 -0.1,-0.3 -0.3,-0.5 -0.2,-0.2 -0.5,-0.3 c -4.5,-2.9 -23.4,-13.6 -51.5,-13.6 -26.9,0 -41.1,5.9 -45.1,8 q -0.3,0.1 -0.5,0.4 -0.2,0.2 -0.4,0.4 -0.1,0.3 -0.2,0.6 -0.1,0.3 -0.1,0.6 c 0,0.2 9.8,-2.9 47.5,-2.9 37.7,0 51.4,8.4 51.4,8.4 z"
       style="fill:#ff0000;stroke:#000000;stroke-width:2;stroke-dasharray:none" />
    <path
       id="path528"
       class="s4"
       d="m 697.1,116.8 v -6.9 c 0,0 -13.7,-8.4 -51.4,-8.4 -37.7,0 -47.5,2.9 -47.5,2.9 v 11 c 7.7,-1.3 21.2,-2.6 44.1,-2.6 28.5,0.1 45.9,2.4 54.8,4 z"
       style="fill:#ff0000;stroke:#000000;stroke-width:2;stroke-dasharray:none" />
    <path
       id="path532"
       class="s22"
       d="m 108.8,109.9 q 0,-0.3 0.1,-0.6 0,-0.3 0.2,-0.5 0.1,-0.3 0.3,-0.5 0.2,-0.2 0.5,-0.3 c 4.5,-2.9 23.4,-13.6 51.5,-13.6 26.9,0 41.1,5.9 45.1,8 q 0.3,0.1 0.5,0.4 0.2,0.2 0.4,0.4 0.1,0.3 0.2,0.6 0.1,0.3 0.1,0.6 c 0,0.2 -9.8,-2.9 -47.5,-2.9 -37.7,0 -51.4,8.4 -51.4,8.4 z"
       style="fill:#ff0000;stroke:#000000;stroke-width:2;stroke-dasharray:none" />
    <path
       id="path534"
       class="s4"
       d="m 108.9,116.8 v -6.9 c 0,0 13.7,-8.4 51.4,-8.4 37.7,0 47.5,2.9 47.5,2.9 v 11 c -7.7,-1.3 -21.2,-2.6 -44.1,-2.6 -28.5,0.1 -45.9,2.4 -54.8,4 z"
       style="fill:#ff0000;stroke:#000000;stroke-width:2;stroke-dasharray:none" />
  </g>
  <g
     id="g568"
     inkscape:label="L2+R2"
     style="display:inline;stroke-width:2;stroke-dasharray:none">
    <g
       id="g550"
       style="opacity:1;fill:#b3b3b3;stroke:none;stroke-width:2;stroke-dasharray:none"
       inkscape:label="R2">
      <path
         id="path540"
         class="s4"
         d="m 697.2,90.8 c 0,0 -32.7,-3.2 -50.6,-3.2 -17.9,0 -48.4,2.4 -48.4,2.4 0,0 3.1,-44.7 4.8,-52 1.7,-7.3 7.7,-21.3 16.9,-27.9 C 629.1,3.5 631.8,0 642.6,0 c 10.8,0 25.4,6.4 34.6,21.4 9.2,15 20,69.4 20,69.4 z"
         style="fill:#ff0000;stroke:#000000;stroke-width:2;stroke-dasharray:none" />
      <path
         id="path546"
         class="s0"
         d="m 648.7,65.7 -3.2,2.6 q -0.5,0.4 -0.8,1 -0.4,0.5 -0.6,1.1 -0.3,0.5 -0.4,1.2 -0.2,0.6 -0.2,1.2 h 9.8 V 70.2 H 647 q 0.2,-0.3 0.4,-0.6 0.3,-0.2 0.5,-0.5 0.3,-0.2 0.6,-0.4 0.3,-0.2 0.6,-0.4 0.4,-0.2 0.7,-0.5 0.4,-0.2 0.7,-0.5 0.4,-0.2 0.7,-0.5 0.3,-0.3 0.6,-0.6 0.3,-0.3 0.6,-0.7 0.2,-0.4 0.4,-0.8 0.1,-0.4 0.2,-0.9 0.1,-0.4 0.1,-0.9 0,-0.5 -0.1,-0.9 -0.1,-0.5 -0.2,-0.9 -0.2,-0.4 -0.5,-0.8 -0.3,-0.4 -0.6,-0.7 -0.4,-0.3 -0.8,-0.5 -0.4,-0.3 -0.8,-0.4 -0.5,-0.2 -1,-0.2 -0.4,-0.1 -0.9,-0.1 c -3.1,0 -4.7,1.7 -4.7,5 h 2.7 q 0,-2.7 2.1,-2.7 0.4,0 0.8,0.1 0.4,0.2 0.7,0.5 0.3,0.3 0.4,0.7 0.2,0.4 0.1,0.8 c 0.2,1.1 -0.4,2 -1.6,2.9 z"
         style="display:none;fill:#b3b3b3;stroke:none;stroke-width:2;stroke-dasharray:none" />
      <path
         id="path548"
         fill-rule="evenodd"
         class="s0"
         d="m 631.1,72.9 h -3 V 58.6 h 7.3 q 0.4,0 0.9,0 0.4,0.1 0.8,0.2 0.4,0.1 0.8,0.3 0.4,0.2 0.7,0.5 0.3,0.3 0.6,0.6 0.2,0.3 0.4,0.7 0.2,0.4 0.3,0.9 0,0.4 0,0.8 0.1,0.5 -0.1,1.1 -0.1,0.5 -0.4,1 -0.3,0.4 -0.7,0.8 -0.5,0.3 -1,0.5 0.5,0.3 0.8,0.6 0.4,0.4 0.6,0.9 0.3,0.4 0.4,1 0.1,0.5 0,1 v 0.7 q 0,0.1 0,0.2 -0.1,0.1 -0.1,0.2 0,0.1 0,0.2 0,0.1 0,0.2 c 0,0.8 0.2,1.3 0.7,1.5 v 0.4 h -3.3 c -0.1,-1.3 -0.2,-2.5 -0.3,-3.8 -0.1,-1.3 -0.9,-1.9 -2.4,-1.9 h -3 z m 0,-8.1 h 3.5 c 1.5,0 2.3,-0.6 2.3,-1.9 0,-1.3 -0.7,-1.9 -2.1,-1.9 h -3.7 z"
         style="display:none;fill:#b3b3b3;stroke:none;stroke-width:2;stroke-dasharray:none" />
    </g>
    <g
       id="g564"
       style="opacity:1;fill:#b3b3b3;stroke:none;stroke-width:2;stroke-dasharray:none"
       inkscape:label="L2">
      <path
         id="path554"
         class="s4"
         d="m 108.8,90.8 c 0,0 32.7,-3.2 50.6,-3.2 17.9,0 48.3,2.4 48.3,2.4 0,0 -3.1,-44.7 -4.8,-52 C 201.2,30.7 195.2,16.7 186,10.1 176.8,3.5 174.2,0 163.4,0 152.6,0 138,6.4 128.8,21.4 c -9.2,15 -20,69.4 -20,69.4 z"
         style="fill:#ff0000;stroke:#000000;stroke-width:2;stroke-dasharray:none" />
      <path
         id="path560"
         class="s0"
         d="m 173.3,65.7 -3.2,2.6 q -0.5,0.4 -0.8,1 -0.4,0.5 -0.6,1.1 -0.3,0.5 -0.4,1.2 -0.2,0.6 -0.2,1.2 h 9.8 v -2.6 h -6.2 q 0.2,-0.3 0.4,-0.6 0.3,-0.2 0.5,-0.5 0.3,-0.2 0.6,-0.4 0.3,-0.2 0.6,-0.4 0.4,-0.2 0.7,-0.5 0.4,-0.2 0.7,-0.5 0.4,-0.2 0.7,-0.5 0.3,-0.3 0.6,-0.6 0.3,-0.3 0.6,-0.7 0.2,-0.4 0.4,-0.8 0.1,-0.4 0.2,-0.9 0.1,-0.4 0.1,-0.9 0,-0.5 -0.1,-0.9 -0.1,-0.5 -0.2,-0.9 -0.2,-0.4 -0.5,-0.8 -0.3,-0.4 -0.6,-0.7 -0.4,-0.3 -0.8,-0.5 -0.4,-0.3 -0.8,-0.4 -0.5,-0.2 -1,-0.2 -0.4,-0.1 -0.9,-0.1 c -3.1,0 -4.7,1.7 -4.7,5 h 2.7 q 0,-2.7 2.1,-2.7 0.4,0 0.8,0.1 0.4,0.2 0.7,0.5 0.3,0.3 0.4,0.7 0.2,0.4 0.1,0.8 c 0.1,1.1 -0.5,2 -1.7,2.9 z"
         style="display:none;fill:#b3b3b3;stroke:none;stroke-width:2;stroke-dasharray:none" />
      <path
         id="path562"
         class="s0"
         d="m 164.8,70.2 h -7 V 58.5 h -3.1 v 14.3 h 10.1 z"
         style="display:none;fill:#b3b3b3;stroke:none;stroke-width:2;stroke-dasharray:none" />
    </g>
  </g>
</svg>
