<?xml version="1.0" encoding="UTF-8" standalone="no"?>
<svg
   id="Layer_1"
   data-name="Layer 1"
   width="286"
   height="94"
   viewBox="0 0 286 94"
   version="1.1"
   sodipodi:docname="ps4sticks.svg"
   inkscape:version="1.2.2 (732a01da63, 2022-12-09)"
   xmlns:inkscape="http://www.inkscape.org/namespaces/inkscape"
   xmlns:sodipodi="http://sodipodi.sourceforge.net/DTD/sodipodi-0.dtd"
   xmlns="http://www.w3.org/2000/svg"
   xmlns:svg="http://www.w3.org/2000/svg">
  <sodipodi:namedview
     id="namedview10221"
     pagecolor="#ffffff"
     bordercolor="#000000"
     borderopacity="0.25"
     inkscape:showpageshadow="2"
     inkscape:pageopacity="0.0"
     inkscape:pagecheckerboard="0"
     inkscape:deskcolor="#d1d1d1"
     showgrid="false"
     inkscape:zoom="4.2307692"
     inkscape:cx="143.11818"
     inkscape:cy="47.036364"
     inkscape:window-width="1920"
     inkscape:window-height="1017"
     inkscape:window-x="1912"
     inkscape:window-y="-8"
     inkscape:window-maximized="1"
     inkscape:current-layer="Layer_1" />
  <defs
     id="defs10176">
    <style
       id="style10174">
      .cls-1 {
        fill: #0f0f0f;
      }

      .cls-2 {
        fill: #121212;
      }

      .cls-3 {
        fill: #141414;
      }

      .cls-4 {
        fill: #f0f0f0;
      }

      .cls-5 {
        fill: #ededed;
      }

      .cls-6 {
        fill: #ebebeb;
      }
    </style>
  </defs>
  <g
     id="g10186">
    <g
       id="g10182">
      <path
         class="cls-1"
         d="M47,92.5A45.5,45.5,0,1,1,92.5,47,45.54,45.54,0,0,1,47,92.5Z"
         id="path10178"
         style="stroke-width:2;stroke-dasharray:none;stroke:#000000;fill:#ffffff" />
    </g>
    <circle
       class="cls-3"
       cx="47"
       cy="47"
       r="27.299999"
       id="circle10184"
       style="display:none" />
  </g>
  <g
     id="g10202">
    <g
       id="g10192">
      <path
         class="cls-4"
         d="M239,92.5A45.5,45.5,0,1,1,284.5,47,45.54,45.54,0,0,1,239,92.5Z"
         id="path10188"
         style="stroke:#000000;stroke-width:2;stroke-dasharray:none;fill:#1f69ff;fill-opacity:1" />
    </g>
    <circle
       class="cls-6"
       cx="239"
       cy="47"
       r="27.299999"
       id="circle10194"
       style="display:none" />
    <g
       id="g10200"
       style="display:none">
      <path
         d="m 218.7,33.5 h 12.6 c 5.8,0 8.7,2.7 8.7,7.1 0,5.1 -3.5,6.4 -4.4,6.7 v 0.1 c 1.6,0.2 3.9,1.4 3.9,5.6 0,3.1 0.4,5.9 1.4,7 h -5 a 7.36,7.36 0 0 1 -0.7,-3.9 c 0,-4.8 -1,-7 -5.3,-7 h -6.8 V 60 h -4.6 V 33.5 Z m 4.6,12.1 h 7.6 q 4.5,0 4.5,-4.2 c 0,-3.4 -2.2,-4 -4.6,-4 h -7.5 z"
         id="path10196" />
      <path
         d="m 250.3,44.8 c 2.8,0.1 5.7,-0.9 5.7,-4.1 A 3.71,3.71 0 0 0 252,37 c -2.9,0 -4.4,2.6 -4.3,5.3 h -4.2 c 0.2,-5 3.4,-8.8 8.6,-8.8 4,0 8.2,2.3 8.2,6.9 0,2.6 -1.1,4.7 -3.7,5.5 V 46 c 3,0.6 4.7,3.1 4.7,6.5 0,4.9 -4.3,7.9 -9.2,7.9 -6,0 -9,-3.6 -9.1,-9 h 4.2 c -0.1,3.1 1.6,5.5 4.9,5.5 2.8,0 5,-1.7 5,-4.6 0,-4 -3.4,-4.5 -6.8,-4.4 z"
         id="path10198" />
    </g>
  </g>
  <g
     id="g10218">
    <g
       id="g10208">
      <path
         class="cls-4"
         d="M143,92.5A45.5,45.5,0,1,1,188.5,47,45.54,45.54,0,0,1,143,92.5Z"
         id="path10204"
         style="fill:#1f69ff;fill-opacity:1;stroke:#000000;stroke-width:2;stroke-dasharray:none" />
    </g>
    <circle
       class="cls-6"
       cx="143"
       cy="47"
       r="27.299999"
       id="circle10210"
       style="display:none" />
    <g
       id="g10216"
       style="display:none">
      <path
         d="m 125.1,33.5 h 4.6 v 22.4 h 13.4 v 4 h -18 z"
         id="path10212" />
      <path
         d="m 151.9,44.8 c 2.8,0.1 5.7,-0.9 5.7,-4.1 a 3.71,3.71 0 0 0 -4,-3.7 c -2.9,0 -4.4,2.6 -4.3,5.3 h -4.2 c 0.2,-5 3.4,-8.8 8.6,-8.8 4,0 8.2,2.3 8.2,6.9 0,2.6 -1.1,4.7 -3.7,5.5 V 46 c 3,0.6 4.7,3.1 4.7,6.5 0,4.9 -4.3,7.9 -9.2,7.9 -6,0 -9,-3.6 -9.1,-9 h 4.2 c -0.1,3.1 1.6,5.5 4.9,5.5 2.8,0 5,-1.7 5,-4.6 0,-4 -3.4,-4.5 -6.8,-4.4 v -3.1 z"
         id="path10214" />
    </g>
  </g>
</svg>
