<?xml version="1.0" encoding="UTF-8" standalone="no"?>
<svg
   id="Layer_1"
   data-name="Layer 1"
   width="200"
   height="90.8"
   viewBox="0 0 200 90.8"
   version="1.1"
   sodipodi:docname="ps4triggers.svg"
   inkscape:version="1.2.2 (732a01da63, 2022-12-09)"
   xmlns:inkscape="http://www.inkscape.org/namespaces/inkscape"
   xmlns:sodipodi="http://sodipodi.sourceforge.net/DTD/sodipodi-0.dtd"
   xmlns="http://www.w3.org/2000/svg"
   xmlns:svg="http://www.w3.org/2000/svg">
  <sodipodi:namedview
     id="namedview11121"
     pagecolor="#ffffff"
     bordercolor="#000000"
     borderopacity="0.25"
     inkscape:showpageshadow="2"
     inkscape:pageopacity="0.0"
     inkscape:pagecheckerboard="0"
     inkscape:deskcolor="#d1d1d1"
     showgrid="false"
     inkscape:zoom="6.05"
     inkscape:cx="100.08264"
     inkscape:cy="45.454545"
     inkscape:window-width="1920"
     inkscape:window-height="1017"
     inkscape:window-x="1912"
     inkscape:window-y="-8"
     inkscape:window-maximized="1"
     inkscape:current-layer="Layer_1" />
  <defs
     id="defs11090">
    <style
       id="style11088">
      .cls-1 {
        fill: #ededed;
      }

      .cls-2 {
        fill: #f5f5f5;
      }

      .cls-3 {
        opacity: 0.08;
      }
    </style>
  </defs>
  <g
     class="cls-3"
     id="g11102"
     style="display:inline;opacity:1">
    <path
       class="cls-1"
       d="m 199.9,90.8 c 0,0 -32.7,-3.2 -50.6,-3.2 -17.9,0 -48.4,2.4 -48.4,2.4 0,0 3.1,-44.7 4.8,-52 1.7,-7.3 7.7,-21.3 16.9,-27.9 9.2,-6.6 12,-10.1 22.8,-10.1 10.8,0 25.4,6.4 34.6,21.4 9.2,15 19.9,69.4 19.9,69.4 z"
       transform="translate(0.1)"
       id="path11092"
       style="fill:#1f69ff;fill-opacity:1;stroke:#000000;stroke-width:2;stroke-dasharray:none" />
    <path
       d="m 151.4,65.7 -3.2,2.6 a 6.71,6.71 0 0 0 -2,4.5 h 9.8 v -2.6 h -6.2 a 6.71,6.71 0 0 1 2.1,-1.9 12.47,12.47 0 0 0 2.7,-2.1 4.77,4.77 0 0 0 1.3,-3.3 4.22,4.22 0 0 0 -1.4,-3.3 5.13,5.13 0 0 0 -3.5,-1.2 c -3.1,0 -4.7,1.7 -4.7,5 h 2.7 q 0,-2.7 2.1,-2.7 a 1.83,1.83 0 0 1 2,2.1 c 0.1,1.1 -0.5,2 -1.7,2.9 z"
       transform="translate(0.1)"
       id="path11098"
       style="display:none" />
    <path
       d="m 133.9,67.2 h 3 c 1.5,0 2.3,0.6 2.4,1.9 0.1,1.3 0.2,2.5 0.3,3.8 h 3.3 v -0.4 c -0.5,-0.2 -0.7,-0.7 -0.7,-1.5 a 2.81,2.81 0 0 1 0.1,-0.8 v -0.7 a 3.56,3.56 0 0 0 -1.8,-3.5 3.25,3.25 0 0 0 2.2,-3.4 3.54,3.54 0 0 0 -1.3,-3 4.72,4.72 0 0 0 -3.2,-1 h -7.3 v 14.3 h 3 z m 0,-6.2 h 3.7 c 1.4,0 2.1,0.6 2.1,1.9 0,1.3 -0.8,1.9 -2.3,1.9 h -3.5 z"
       transform="translate(0.1)"
       id="path11100"
       style="display:none" />
  </g>
  <g
     class="cls-3"
     id="g11116"
     style="display:inline;opacity:1">
    <path
       class="cls-1"
       d="m 0,90.8 c 0,0 32.7,-3.2 50.6,-3.2 17.9,0 48.3,2.4 48.3,2.4 0,0 -3.1,-44.7 -4.8,-52 C 92.4,30.7 86.4,16.7 77.2,10.1 68,3.5 65.3,0 54.5,0 43.7,0 29.1,6.4 19.9,21.4 10.7,36.4 0,90.8 0,90.8 Z"
       transform="translate(0.1)"
       id="path11106"
       style="fill:#1f69ff;fill-opacity:1;stroke:#000000;stroke-width:2;stroke-dasharray:none" />
    <path
       d="m 64.5,65.7 -3.2,2.6 a 6.71,6.71 0 0 0 -2,4.5 H 69 v -2.6 h -6.2 a 6.71,6.71 0 0 1 2.1,-1.9 12.47,12.47 0 0 0 2.7,-2.1 4.77,4.77 0 0 0 1.3,-3.3 4.22,4.22 0 0 0 -1.4,-3.3 5.13,5.13 0 0 0 -3.5,-1.2 c -3.1,0 -4.7,1.7 -4.7,5 H 62 q 0,-2.7 2.1,-2.7 a 1.83,1.83 0 0 1 2,2.1 3.17,3.17 0 0 1 -1.6,2.9 z"
       transform="translate(0.1)"
       id="path11112"
       style="display:none" />
    <polygon
       points="46,58.5 46,72.8 56.1,72.8 56.1,70.2 49,70.2 49,58.5 "
       id="polygon11114"
       style="display:none" />
  </g>
</svg>
